<svg data-name="Layer 1" xmlns="http://www.w3.org/2000/svg" viewBox="0 0 980.1 980.1" fill="#f2870c"><path d="M309.4,472.8H200.6V581.7H309.5V472.8Zm-27.2,81.6H227.8V500h54.4Z" transform="translate(-10 -10)"/><path d="M554.4,472.8H445.6V581.7H554.5V472.8Zm-27.2,81.6H472.8V500h54.4Z" transform="translate(-10 -10)"/><path d="M799.4,472.8H690.6V581.7H799.5V472.8Zm-27.2,81.6H717.8V500h54.4Z" transform="translate(-10 -10)"/><path d="M309.4,717.8H200.6V826.7H309.5V717.8Zm-27.2,81.6H227.8V745h54.4Z" transform="translate(-10 -10)"/><path d="M554.4,717.8H445.6V826.7H554.5V717.8Zm-27.2,81.6H472.8V745h54.4Z" transform="translate(-10 -10)"/><path d="M799.4,717.8H690.6V826.7H799.5V717.8Zm-27.2,81.6H717.8V745h54.4Z" transform="translate(-10 -10)"/><path d="M908.3,118.9H772.2V78.1a68.1,68.1,0,0,0-136.2,0v40.8H363.9V78.1a68.1,68.1,0,1,0-136.2,0v40.8H91.7A81.73,81.73,0,0,0,10,200.6V908.4a81.73,81.73,0,0,0,81.7,81.7H908.4a81.73,81.73,0,0,0,81.7-81.7V200.6A81.81,81.81,0,0,0,908.3,118.9ZM690.6,78.1a13.6,13.6,0,1,1,27.2,0V214.2a13.6,13.6,0,1,1-27.2,0Zm-408.4,0a13.6,13.6,0,1,1,27.2,0V214.2a13.6,13.6,0,1,1-27.2,0ZM935.6,908.3a27.23,27.23,0,0,1-27.2,27.2H91.7a27.23,27.23,0,0,1-27.2-27.2V363.9H935.6Zm0-571.6H64.4V200.6a27.23,27.23,0,0,1,27.2-27.2H227.7v40.8a68.1,68.1,0,1,0,136.2,0V173.4H636.1v40.8a68.1,68.1,0,1,0,136.2,0V173.4H908.4a27.23,27.23,0,0,1,27.2,27.2V336.7Z" transform="translate(-10 -10)"/></svg>